<?xml version="1.0" standalone="no"?>
<!DOCTYPE svg PUBLIC "-//W3C//DTD SVG 20010904//EN"
 "http://www.w3.org/TR/2001/REC-SVG-20010904/DTD/svg10.dtd">
<svg version="1.0" xmlns="http://www.w3.org/2000/svg"
 width="1244.000000pt" height="689.000000pt" viewBox="0 0 1244.000000 689.000000"
 preserveAspectRatio="xMidYMid meet">

<g transform="translate(0.000000,689.000000) scale(0.100000,-0.100000)"
fill="#000000" stroke="none">
<path d="M2642 6715 c-7 -14 -175 -314 -375 -668 -201 -353 -370 -652 -376
-664 -11 -21 26 -89 370 -695 210 -370 387 -678 393 -685 8 -9 113 166 404
674 l393 685 -393 689 c-216 379 -396 689 -399 689 -3 0 -11 -11 -17 -25z"/>
<path d="M5610 3530 l0 -3150 45 0 45 0 0 3150 0 3150 -45 0 -45 0 0 -3150z"/>
<path d="M8832 6403 c-23 -43 -60 -107 -82 -143 -22 -36 -49 -84 -61 -108 -11
-24 -46 -84 -78 -135 -31 -51 -60 -100 -64 -109 -3 -10 -33 -63 -67 -118 -33
-55 -60 -103 -60 -106 0 -2 -25 -45 -55 -95 -31 -50 -62 -105 -70 -123 -8 -17
-41 -74 -74 -126 l-59 -95 21 -35 c39 -65 189 -325 240 -415 28 -49 66 -114
84 -142 18 -29 37 -63 42 -75 5 -13 35 -66 68 -118 32 -52 62 -103 66 -112 3
-9 32 -61 65 -115 32 -54 74 -126 92 -161 37 -71 41 -70 82 8 26 48 106 187
203 353 33 56 73 127 89 157 16 30 41 73 56 95 15 22 38 60 50 85 13 25 49 88
81 141 33 54 59 99 59 102 0 3 20 38 45 79 24 40 54 91 66 112 24 44 25 40
-48 161 -20 33 -46 78 -58 100 -52 94 -180 315 -216 372 -21 34 -39 66 -39 69
0 4 -31 59 -69 123 -119 202 -175 299 -208 363 -52 100 -53 100 -101 11z"/>
<path d="M7423 3963 c-12 -21 -31 -56 -43 -78 -12 -22 -46 -81 -76 -131 -30
-50 -54 -93 -54 -96 0 -3 -25 -45 -55 -94 -30 -49 -59 -99 -65 -111 -5 -13
-38 -71 -73 -130 -35 -60 -83 -142 -106 -183 -60 -104 -173 -298 -200 -342
l-23 -38 715 0 715 0 66 110 c36 60 66 113 66 116 0 4 27 51 60 104 33 53 60
100 60 104 0 4 29 55 64 114 114 192 196 333 196 337 0 3 26 49 58 102 32 54
77 133 101 176 l42 77 -713 0 -714 0 -21 -37z"/>
<path d="M8890 3994 c0 -3 35 -65 77 -137 42 -73 86 -150 98 -172 12 -22 43
-76 69 -120 26 -44 51 -87 56 -95 40 -71 163 -282 205 -355 29 -49 65 -112 80
-138 15 -27 40 -70 56 -95 16 -26 37 -64 47 -84 l17 -38 719 0 c680 0 718 1
712 18 -4 9 -38 69 -75 132 -38 63 -103 174 -144 245 -42 72 -89 150 -104 175
-16 25 -41 70 -58 100 -32 59 -112 194 -209 355 -34 56 -74 126 -91 158 l-30
57 -712 0 c-392 0 -713 -3 -713 -6z"/>
<path d="M774 3423 c-174 -307 -350 -615 -390 -686 l-73 -127 785 2 786 3 384
675 c211 371 384 678 384 683 0 4 -351 7 -779 7 l-780 0 -317 -557z"/>
<path d="M2670 3976 c0 -2 175 -310 389 -683 l389 -678 785 -3 785 -2 -388
682 -389 683 -785 3 c-433 1 -786 0 -786 -2z"/>
<path d="M3647 2206 c-112 -31 -158 -140 -104 -246 22 -45 35 -55 189 -153 32
-20 65 -48 74 -62 33 -51 -10 -107 -82 -107 -45 0 -83 34 -93 83 -7 33 -8 34
-64 37 l-57 3 6 -33 c24 -145 118 -214 256 -188 101 19 158 84 158 180 0 93
-33 136 -170 214 -116 67 -148 118 -101 160 46 42 132 9 146 -55 6 -28 9 -29
61 -29 60 0 63 4 44 72 -29 103 -144 157 -263 124z"/>
<path d="M1947 2196 c-80 -29 -111 -80 -105 -171 5 -77 34 -119 116 -172 166
-106 167 -106 170 -144 2 -30 -2 -41 -24 -58 -60 -47 -145 -12 -160 65 -6 34
-7 34 -60 34 -62 0 -64 -4 -39 -88 22 -72 68 -117 140 -133 179 -40 319 113
244 268 -22 46 -72 87 -181 147 -100 54 -120 94 -73 141 34 35 78 33 116 -4
17 -17 29 -40 29 -55 0 -25 2 -26 60 -26 68 0 68 0 45 76 -32 109 -157 163
-278 120z"/>
<path d="M630 1870 l0 -330 60 0 60 0 2 212 3 211 64 -146 c36 -81 67 -147 71
-147 3 0 35 63 70 141 35 77 68 143 72 145 5 3 8 -90 8 -205 l0 -211 55 0 55
0 0 330 0 330 -64 0 -64 0 -63 -145 c-35 -79 -66 -145 -69 -145 -3 0 -32 64
-65 143 l-61 142 -67 3 -67 3 0 -331z"/>
<path d="M1260 1870 l0 -330 55 0 55 0 0 330 0 330 -55 0 -55 0 0 -330z"/>
<path d="M1430 2150 l0 -50 70 0 70 0 0 -280 0 -280 55 0 55 0 0 280 0 280 70
0 70 0 0 50 0 50 -195 0 -195 0 0 -50z"/>
<path d="M2300 1943 c0 -287 5 -312 69 -366 82 -69 248 -61 318 14 49 53 53
81 53 354 l0 255 -54 0 -55 0 -3 -248 c-3 -216 -5 -251 -21 -275 -32 -49 -132
-53 -169 -6 -16 19 -18 48 -18 275 l0 254 -60 0 -60 0 0 -257z"/>
<path d="M2820 1870 l0 -330 143 0 c116 0 149 4 182 19 99 45 138 156 89 253
-13 26 -53 62 -77 71 -7 3 -1 13 16 27 39 31 57 71 57 127 0 65 -27 112 -80
140 -39 21 -57 23 -187 23 l-143 0 0 -330z m271 211 c18 -14 24 -29 24 -61 0
-55 -29 -80 -91 -80 l-44 0 0 -54 0 -54 55 -4 c73 -6 95 -27 95 -88 0 -77 -38
-104 -138 -98 l-53 3 -2 228 -2 227 66 0 c51 0 72 -5 90 -19z"/>
<path d="M3320 1870 l0 -330 60 0 60 0 0 330 0 330 -60 0 -60 0 0 -330z"/>
<path d="M3990 1870 l0 -331 63 3 62 3 2 140 1 140 116 3 115 3 3 -143 3 -143
58 -3 57 -3 0 331 0 330 -60 0 -60 0 0 -130 0 -131 -116 3 -116 3 1 128 2 127
-65 0 -66 0 0 -330z"/>
<path d="M4580 1870 l0 -330 60 0 60 0 0 330 0 330 -60 0 -60 0 0 -330z"/>
<path d="M10750 1896 c-3 -3 -26 -6 -50 -7 -100 -4 -181 -39 -234 -100 -66
-78 -71 -107 -71 -444 0 -274 2 -305 20 -353 27 -75 91 -132 180 -163 70 -24
72 -24 495 -24 382 0 432 2 490 18 92 26 165 83 199 156 l26 56 3 299 c3 277
2 304 -17 366 -14 45 -31 78 -53 99 -39 38 -119 78 -173 87 -50 8 -808 18
-815 10z m628 -240 c55 -8 101 -21 111 -30 32 -29 44 -120 39 -312 -4 -205
-11 -228 -73 -259 -37 -18 -60 -20 -295 -20 -300 0 -362 4 -414 24 -64 25 -70
50 -70 301 -1 195 1 218 18 243 26 39 48 48 130 57 126 13 455 11 554 -4z"/>
<path d="M6110 1350 l0 -540 140 0 140 0 2 198 3 197 428 3 427 2 0 110 0 110
-430 0 -431 0 3 108 3 107 453 3 453 2 -3 118 -3 117 -592 3 -593 2 0 -540z"/>
<path d="M9112 1879 c-42 -9 -107 -48 -130 -78 -35 -49 -45 -98 -44 -244 1
-134 2 -143 29 -196 21 -41 40 -62 78 -85 l50 -31 397 -5 c459 -6 432 0 433
-100 0 -102 38 -95 -510 -98 l-475 -3 0 -117 0 -117 542 3 c327 1 555 6 573
12 36 12 109 80 131 121 21 42 37 182 28 264 -13 130 -45 187 -133 231 l-56
29 -383 5 -384 5 -25 29 c-21 24 -24 37 -20 69 3 22 14 48 24 59 18 18 41 19
476 18 l457 0 0 117 0 118 -515 0 c-283 0 -527 -3 -543 -6z"/>
<path d="M7483 1471 c4 -487 8 -512 79 -584 51 -51 113 -84 181 -95 60 -10
683 -9 737 1 105 20 184 83 223 178 21 52 22 69 25 479 l3 425 -140 0 -141 0
0 -335 c0 -373 -7 -441 -45 -480 l-25 -25 -250 -3 c-158 -2 -264 1 -290 8 -76
20 -75 14 -78 450 l-4 385 -140 1 -139 0 4 -405z"/>
<path d="M3815 1276 c-94 -26 -142 -115 -116 -213 14 -52 61 -99 152 -152 135
-80 165 -126 114 -176 -18 -19 -35 -25 -68 -25 -53 0 -85 29 -94 84 l-6 36
-53 0 c-52 0 -54 -1 -54 -27 0 -77 46 -154 107 -179 18 -8 63 -14 100 -14 129
0 206 66 206 178 0 95 -25 128 -163 212 -107 65 -130 87 -130 120 0 50 60 79
116 55 25 -10 36 -23 45 -54 l12 -41 54 0 c51 0 53 1 52 28 -3 127 -133 207
-274 168z"/>
<path d="M1224 1271 c-2 -2 -4 -152 -4 -333 l0 -328 60 0 60 0 2 212 3 212 65
-147 c36 -81 68 -147 71 -147 3 0 34 62 69 138 34 75 67 141 71 147 5 5 9 -83
9 -203 l0 -212 55 0 55 0 0 333 0 332 -62 -1 -63 -2 -65 -146 c-36 -80 -67
-146 -70 -146 -3 0 -32 65 -64 144 l-60 144 -64 4 c-35 2 -66 1 -68 -1z"/>
<path d="M1961 1266 c-90 -32 -154 -130 -171 -259 -19 -149 29 -307 111 -367
98 -71 241 -59 320 27 106 113 119 371 26 508 -61 90 -182 129 -286 91z m164
-129 c42 -42 59 -101 59 -202 1 -140 -51 -225 -135 -225 -85 0 -130 66 -137
201 -8 161 43 259 135 259 38 0 50 -5 78 -33z"/>
<path d="M2462 1272 l-193 -2 3 -48 3 -47 68 -3 67 -3 0 -279 0 -280 60 0 60
0 0 280 0 279 68 3 67 3 3 44 c2 24 0 46 -5 50 -4 3 -95 5 -201 3z"/>
<path d="M2810 1267 c-19 -6 -56 -32 -82 -58 -67 -67 -92 -150 -87 -297 4 -98
7 -114 37 -174 39 -80 91 -122 168 -138 193 -40 330 125 311 378 -13 188 -98
291 -245 298 -37 2 -83 -2 -102 -9z m159 -122 c44 -38 66 -104 66 -205 0 -148
-50 -230 -140 -230 -54 0 -95 37 -119 107 -20 59 -21 174 -1 240 30 102 125
145 194 88z"/>
<path d="M3210 1273 c0 -2 0 -150 0 -330 l-1 -328 56 -3 55 -3 0 281 0 280 66
0 c60 0 68 -3 96 -30 28 -28 30 -36 25 -78 -7 -60 -41 -92 -98 -92 -28 0 -39
-4 -37 -13 2 -6 44 -87 93 -179 l90 -168 68 0 c37 0 67 2 67 6 0 3 -37 69 -82
146 -62 106 -79 143 -68 146 33 11 78 72 90 121 22 91 -9 174 -80 215 -30 18
-57 22 -188 26 -83 3 -152 4 -152 3z"/>
</g>
</svg>
